<svg width="592" height="52" viewBox="0 0 592 52" fill="none" xmlns="http://www.w3.org/2000/svg">
<path d="M555.08 51.0522V0H563.099V21.596H569.451V14.3708H584.695V21.596H592V51.0522H583.901V22.3105H570.245V29.4563H563.099V51.0522H555.08Z" fill="#444444"/>
<path d="M517.334 51.0525V43.9067H510.109V21.5962H517.334V14.3711H539.724V21.5962H547.029V29.4565H538.93V22.3108H518.128V43.1128H538.93V35.8877H547.029V43.9067H539.724V51.0525H517.334Z" fill="#444444"/>
<path d="M470.813 51.0525V43.9067H463.588V21.5962H470.813V14.3711H493.203V21.5962H500.507V29.4565H492.409V22.3108H471.607V28.6625H486.057V36.6816H471.607V43.1128H492.409V35.8083H500.507V43.8273H493.203V51.0525H470.813Z" fill="#444444"/>
<path d="M426.63 51.0522V43.9065H419.484V22.3105H412.259V14.3708H419.484V0H427.424V14.3708H449.178V22.3105H427.424V43.1125H448.384V35.8874H456.403V43.9065H449.178V51.0522H426.63Z" fill="#444444"/>
<path d="M394.658 50.0992V42.0801H402.677V50.0992H394.658Z" fill="#444444"/>
<path d="M348.136 51.0525V14.3711H377.751V21.5962H385.055V51.0525H376.957V22.3108H356.155V51.0525H348.136Z" fill="#444444"/>
<path d="M332.087 51.0522V14.3708H340.106V51.0522H332.087ZM332.087 8.01909V0H340.106V8.01909H332.087Z" fill="#444444"/>
<path d="M285.564 51.0522V0H293.584V28.6623H299.935V21.596H314.386V14.3708H322.484V22.3105H315.179V29.4563H300.729V35.8874H315.179V43.1125H322.484V51.0522H314.386V43.9065H299.935V36.6814H293.584V51.0522H285.564Z" fill="#444444"/>
<path d="M239.043 51.0522V0H247.062V21.596H253.414V14.3708H268.658V21.596H275.963V51.0522H267.864V22.3105H254.208V29.4563H247.062V51.0522H239.043Z" fill="#444444"/>
<path d="M192.522 51.0525V43.1128H221.344V36.6816H199.748V29.4565H192.522V21.5962H199.748V14.3711H229.442V22.3108H200.542V28.6625H222.137V35.8877H229.442V43.9067H222.137V51.0525H192.522Z" fill="#444444"/>
<path d="M153.225 51.0525V43.9067H146V21.5962H153.225V14.3711H175.615V21.5962H182.92V43.9067H175.615V51.0525H153.225ZM154.019 43.1128H174.821V22.3108H154.019V43.1128Z" fill="#444444"/>
<path d="M109.042 51.0522V43.9065H101.896V22.3105H94.6709V14.3708H101.896V0H109.836V14.3708H131.59V22.3105H109.836V43.1125H130.796V35.8874H138.816V43.9065H131.59V51.0522H109.042Z" fill="#444444"/>
<path d="M51.3281 51.0525V14.3711H80.9432V21.5962H88.2477V51.0525H80.1492V22.3108H59.3472V51.0525H51.3281Z" fill="#444444"/>
<path d="M7.22512 51.0525V43.9067H0V21.5962H7.22512V14.3711H29.615V21.5962H36.9196V43.1128H44.1447V51.0525H36.1256V43.9067H29.615V51.0525H7.22512ZM8.01909 43.1128H28.8211V22.3108H8.01909V43.1128Z" fill="#444444"/>
</svg>
