<svg width="80" height="19" viewBox="0 0 80 19" fill="none" xmlns="http://www.w3.org/2000/svg">
<path d="M35.9303 7.22593C35.8457 6.93171 35.7268 6.67174 35.5736 6.44604C35.4205 6.2163 35.2331 6.02284 35.0114 5.86566C34.7937 5.70444 34.5439 5.58151 34.2617 5.49687C33.9836 5.41223 33.6753 5.36991 33.3367 5.36991C32.704 5.36991 32.1478 5.5271 31.6681 5.84147C31.1926 6.15585 30.8217 6.6133 30.5557 7.21384C30.2897 7.81034 30.1567 8.53985 30.1567 9.40236C30.1567 10.2649 30.2877 10.9984 30.5497 11.603C30.8117 12.2075 31.1825 12.669 31.6621 12.9874C32.1417 13.3018 32.708 13.459 33.3609 13.459C33.9534 13.459 34.4592 13.3542 34.8784 13.1446C35.3016 12.931 35.624 12.6307 35.8457 12.2438C36.0714 11.8569 36.1842 11.3994 36.1842 10.8715L36.7163 10.9501H33.5242V8.97917H38.7053V10.5389C38.7053 11.6272 38.4755 12.5622 38.0161 13.3441C37.5566 14.122 36.9238 14.7225 36.1177 15.1457C35.3117 15.5649 34.3887 15.7745 33.3488 15.7745C32.1881 15.7745 31.1684 15.5186 30.2897 15.0067C29.4111 14.4908 28.7259 13.7593 28.2342 12.8121C27.7465 11.8609 27.5027 10.7324 27.5027 9.42655C27.5027 8.42297 27.6478 7.52821 27.938 6.74227C28.2322 5.95231 28.6433 5.28326 29.1713 4.73512C29.6993 4.18698 30.3139 3.76983 31.0152 3.48367C31.7165 3.19751 32.4762 3.05442 33.2944 3.05442C33.9957 3.05442 34.6486 3.1572 35.2532 3.36275C35.8578 3.56428 36.3938 3.85044 36.8614 4.22124C37.3329 4.59204 37.7178 5.03337 38.0161 5.54523C38.3143 6.05307 38.5058 6.6133 38.5904 7.22593H35.9303ZM40.6093 15.6052V6.31908H43.1848V15.6052H40.6093ZM41.9031 5.12204C41.5202 5.12204 41.1917 4.99508 40.9176 4.74116C40.6476 4.48321 40.5126 4.17489 40.5126 3.81618C40.5126 3.4615 40.6476 3.1572 40.9176 2.90328C41.1917 2.64534 41.5202 2.51636 41.9031 2.51636C42.286 2.51636 42.6124 2.64534 42.8825 2.90328C43.1565 3.1572 43.2936 3.4615 43.2936 3.81618C43.2936 4.17489 43.1565 4.48321 42.8825 4.74116C42.6124 4.99508 42.286 5.12204 41.9031 5.12204ZM49.5913 6.31908V8.25369H43.999V6.31908H49.5913ZM45.2686 4.09428H47.8441V12.7517C47.8441 12.9895 47.8804 13.1749 47.9529 13.3079C48.0254 13.4368 48.1262 13.5275 48.2552 13.5799C48.3882 13.6323 48.5413 13.6585 48.7147 13.6585C48.8356 13.6585 48.9565 13.6484 49.0774 13.6283C49.1983 13.6041 49.291 13.586 49.3555 13.5739L49.7606 15.4903C49.6316 15.5306 49.4502 15.577 49.2164 15.6294C48.9827 15.6858 48.6985 15.7201 48.364 15.7322C47.7433 15.7563 47.1992 15.6737 46.7317 15.4843C46.2682 15.2949 45.9075 15.0006 45.6495 14.6016C45.3916 14.2026 45.2646 13.6988 45.2686 13.0902V4.09428ZM53.448 10.2367V15.6052H50.8726V3.2237H53.3755V7.95745H53.4843C53.6939 7.40931 54.0325 6.98007 54.5 6.66973C54.9675 6.35535 55.5539 6.19817 56.2593 6.19817C56.9041 6.19817 57.4664 6.33923 57.946 6.62136C58.4297 6.89946 58.8045 7.30049 59.0705 7.82445C59.3405 8.34437 59.4735 8.96708 59.4695 9.69255V15.6052H56.8941V10.152C56.8981 9.5797 56.753 9.13434 56.4588 8.81593C56.1686 8.49753 55.7615 8.33833 55.2376 8.33833C54.8869 8.33833 54.5766 8.41289 54.3065 8.56202C54.0405 8.71114 53.8309 8.92879 53.6778 9.21495C53.5286 9.49708 53.4521 9.83765 53.448 10.2367ZM66.8554 11.6513V6.31908H69.4309V15.6052H66.9582V13.9185H66.8615C66.6519 14.4626 66.3033 14.8999 65.8156 15.2304C65.3319 15.5609 64.7415 15.7261 64.0442 15.7261C63.4235 15.7261 62.8774 15.5851 62.4058 15.3029C61.9343 15.0208 61.5655 14.6198 61.2995 14.0998C61.0375 13.5799 60.9045 12.9572 60.9005 12.2317V6.31908H63.4759V11.7723C63.4799 12.3204 63.627 12.7537 63.9172 13.0721C64.2074 13.3905 64.5964 13.5497 65.0841 13.5497C65.3944 13.5497 65.6846 13.4792 65.9546 13.3381C66.2247 13.193 66.4423 12.9794 66.6076 12.6972C66.7768 12.4151 66.8595 12.0665 66.8554 11.6513ZM70.9434 15.6052V3.2237H73.5189V7.87886H73.5975C73.7103 7.62897 73.8736 7.37505 74.0872 7.11711C74.3048 6.85513 74.587 6.63748 74.9336 6.46418C75.2842 6.28684 75.7195 6.19817 76.2394 6.19817C76.9165 6.19817 77.5413 6.37551 78.1136 6.73018C78.6859 7.08083 79.1434 7.61083 79.486 8.32019C79.8285 9.02552 79.9998 9.9102 79.9998 10.9742C79.9998 12.0101 79.8326 12.8847 79.498 13.598C79.1675 14.3074 78.7161 14.8455 78.1438 15.2122C77.5755 15.575 76.9387 15.7563 76.2334 15.7563C75.7336 15.7563 75.3084 15.6737 74.9578 15.5085C74.6111 15.3432 74.327 15.1357 74.1053 14.8858C73.8836 14.6319 73.7144 14.3759 73.5975 14.118H73.4826V15.6052H70.9434ZM73.4645 10.9621C73.4645 11.5143 73.5411 11.9959 73.6942 12.4071C73.8474 12.8182 74.069 13.1386 74.3592 13.3683C74.6494 13.594 75.0021 13.7069 75.4172 13.7069C75.8364 13.7069 76.1911 13.592 76.4813 13.3623C76.7715 13.1285 76.9911 12.8061 77.1402 12.395C77.2934 11.9798 77.37 11.5022 77.37 10.9621C77.37 10.4261 77.2954 9.95453 77.1463 9.54746C76.9972 9.14039 76.7775 8.82198 76.4873 8.59225C76.1971 8.36251 75.8404 8.24764 75.4172 8.24764C74.9981 8.24764 74.6434 8.35848 74.3532 8.58015C74.067 8.80183 73.8474 9.1162 73.6942 9.52328C73.5411 9.93035 73.4645 10.41 73.4645 10.9621Z" fill="white"/>
<path d="M9.60272 0C14.9082 0 19.2054 4.29722 19.2054 9.60272C19.2049 11.6147 18.5735 13.5759 17.3999 15.2103C16.2264 16.8446 14.5699 18.0697 12.6636 18.7133C12.1834 18.8093 12.0034 18.5092 12.0034 18.2572C12.0034 17.9331 12.0154 16.9008 12.0154 15.6164C12.0154 14.7162 11.7153 14.14 11.3672 13.8399C13.5038 13.5998 15.7485 12.7836 15.7485 9.09857C15.7485 8.04228 15.3764 7.19003 14.7642 6.51784C14.8602 6.27778 15.1963 5.2935 14.6682 3.97312C14.6682 3.97312 13.8639 3.70905 12.0274 4.9574C11.2592 4.74134 10.443 4.63331 9.62673 4.63331C8.81049 4.63331 7.99426 4.74134 7.22605 4.9574C5.38953 3.72105 4.5853 3.97312 4.5853 3.97312C4.05715 5.2935 4.39324 6.27778 4.48927 6.51784C3.8771 7.19003 3.50499 8.05428 3.50499 9.09857C3.50499 12.7716 5.73762 13.5998 7.87423 13.8399C7.59815 14.08 7.34608 14.5001 7.26206 15.1243C6.7099 15.3764 5.32951 15.7845 4.46526 14.3321C4.28521 14.044 3.74506 13.3358 2.98885 13.3478C2.18462 13.3598 2.66476 13.8039 3.00085 13.984C3.40897 14.212 3.8771 15.0643 3.98513 15.3403C4.17718 15.8805 4.80136 16.9128 7.21404 16.4687C7.21404 17.2729 7.22605 18.0291 7.22605 18.2572C7.22605 18.5092 7.04599 18.7973 6.56586 18.7133C4.65328 18.0767 2.98973 16.854 1.81118 15.2187C0.632635 13.5834 -0.00105687 11.6185 1.32315e-06 9.60272C1.32315e-06 4.29722 4.29722 0 9.60272 0Z" fill="white"/>
</svg>
